<?xml version="1.0" encoding="utf-8"?>
<svg version="1.1" id="Layer_1" xmlns="http://www.w3.org/2000/svg" xmlns:xlink="http://www.w3.org/1999/xlink" x="0px" y="0px"
	 viewBox="0 0 594.94 591" xml:space="preserve" style="fill:#FFF08D">

<path d="M427.4,291.86c55.69-55.41,110.13-109.57,163.04-162.25C547.83,87.13,505.26,44.7,460.33,0
	c-52.91,53-107.12,107.35-162.86,163.27C241.73,107.35,187.52,53,134.62,0C89.68,44.7,47.11,87.13,4.5,129.61
	c52.91,52.68,107.35,106.84,163.04,162.25C108.37,349.31,53.23,402.87,0,454.58C47.3,502.43,89.96,545.6,134.75,591
	c52.35-52.45,106.38-106.61,162.72-163.04c56.34,56.43,110.36,110.6,162.72,163.04c44.79-45.4,87.46-88.57,134.75-136.42
	C541.71,402.87,486.57,349.31,427.4,291.86z M297.84,363.13c-0.14,0.14-0.23,0.23-0.37,0.37c-0.14-0.14-0.23-0.23-0.37-0.37
	c-55.23,53.79-109.81,106.98-165.22,160.95c-22.03-22.12-42.43-42.66-67.28-67.66c55-53.93,109.95-107.72,169.67-166.24
	C178.76,235.75,123.9,181.96,68.03,127.15c21.42-20.26,42.38-40.11,67.56-63.85c53.98,56.11,106.28,110.46,161.88,168.23
	c55.6-57.78,107.91-112.13,161.88-168.23c25.18,23.74,46.14,43.59,67.56,63.85c-55.88,54.81-110.73,108.6-166.24,163.04
	c59.73,58.52,114.68,112.31,169.67,166.24c-24.85,24.99-45.26,45.54-67.28,67.66C407.65,470.11,353.07,416.92,297.84,363.13z"/>
</svg>
