<?xml version="1.0" encoding="UTF-8" standalone="no"?>
<svg
   version="1.1"
   id="svg2"
   viewBox="0 0 986.35999 169.93333"
   xmlns:inkscape="http://www.inkscape.org/namespaces/inkscape"
   xmlns:sodipodi="http://sodipodi.sourceforge.net/DTD/sodipodi-0.dtd"
   xmlns="http://www.w3.org/2000/svg"
   xmlns:svg="http://www.w3.org/2000/svg" style="fill:#FFF08D">
  <defs
     id="defs6" />
  <sodipodi:namedview
     id="namedview4"
     inkscape:showpageshadow="2" />
  <g
     id="g8"
     transform="matrix(1.3333333,0,0,-1.3333333,0,169.93333)">
    <g
       id="g10"
       transform="scale(0.1)">
      <path
         d="m 508.586,867.469 c -170.352,0 -337.473,0 -507.34381,0 0,35.219 0,67.691 0,103.855 168.01581,0 335.00381,0 507.34381,0 0,-32.777 0,-66.148 0,-103.855"
         id="letter_e1_top" />
      <path
         d="m 0,580.516 c 0,36.968 0,68.25 0,103.672 153.234,0 305.016,0 460.344,0 0,-34.172 0,-67.993 0,-103.672 -154.11,0 -304.641,0 -460.344,0"
         id="letter_e1_middle" />
      <path
         d="m 508.805,393.609 c 0,-36.757 0,-68.171 0,-103.379 -168.578,0 -335.68,0 -506.555,0 0,32.922 0,66.622 0,103.379 167.801,0 334.836,0 506.555,0"
         id="letter_e1_bottom" />
      <path
         d="m 684.887,973.566 c 53.726,0 95.164,0 142.097,0 54.11,-77.742 109.981,-158.011 170.375,-244.781 59.971,84.27 117.761,165.473 173.521,243.824 45.91,0 86.9,0 137.35,0 -160.94,-231.363 -317.628,-456.605 -475.511,-683.57 -49.133,0 -98.129,0 -154.477,0 83.653,117.527 163.914,230.313 246.438,346.25 -78.45,110.668 -156.012,220.082 -239.793,338.277"
         id="letter_x_top" />
      <path
         d="m 1315.86,288.695 c -51.76,0 -94.19,0 -141.02,0 -38.82,54.875 -78.8,111.379 -120.01,169.614 23.68,32.254 45.62,62.168 71.74,97.769 63.87,-90.223 124.47,-175.808 189.29,-267.383"
         id="letter_x_bottom" />
      <path
         d="m 1686.63,969.012 c 0,-33.035 0,-65.934 0,-100.895 -113.59,-41.613 -173.08,-121.762 -170.31,-245.289 2.58,-115.281 60.97,-189.07 169.71,-228.816 0,-33.664 0,-67.824 0,-102.051 -157.63,3.863 -290.15,156.523 -292.86,336.277 -2.62,173.938 129.83,328.789 293.46,340.774"
         id="letter_o1_left" />
      <path
         d="m 1788.24,969.012 c 0,-33.035 0,-65.934 0,-100.895 113.59,-41.613 173.07,-121.762 170.31,-245.289 -2.58,-115.281 -60.98,-189.07 -169.71,-228.816 0,-33.664 0,-67.824 0,-102.051 157.62,3.863 290.14,156.523 292.85,336.277 2.62,173.938 -129.82,328.789 -293.45,340.774"
         id="letter_o1_right" />
      <path
         d="m 2308.16,869.801 c 118.8,120.601 271.7,112.597 426.1,104.199 V 866.102 c -52.5,0 -99.1,2.402 -145.3,-0.801 -37.6,-2.602 -77.2,-6.004 -111.7,-19.602 -89.4,-35.199 -140.39,-118.894 -139,-215.301 -1.39,-96.398 49.6,-180.097 139,-215.293 34.5,-13.605 74.1,-17.003 111.7,-19.601 46.2,-3.203 92.8,-0.801 145.3,-0.801 V 286.805 c -154.4,-8.403 -307.3,-16.407 -426.1,104.199 -68.1,69.195 -100.4,150.594 -98.4,239.394 -2,88.801 30.3,170.204 98.4,239.403"
         id="letter_c" />
      <path
         d="m 3167.3,969.824 c 0,-34.515 0,-65.918 0,-100.937 -120.47,-45.938 -180.42,-133.504 -168.74,-265.18 9.36,-105.457 66.89,-173.801 167.81,-208.769 0,-34.872 0,-69.161 0,-103.516 -158.04,5.449 -286.07,151.848 -292.84,333.242 -6.38,170.859 124.11,326.613 293.77,345.16"
         id="letter_o2_left" />
      <path
         d="m 3266.25,969.824 c 0,-34.515 0,-65.918 0,-100.937 120.47,-45.938 180.42,-133.504 168.74,-265.18 -9.36,-105.457 -66.89,-173.801 -167.81,-208.769 0,-34.872 0,-69.161 0,-103.516 158.03,5.449 286.07,151.848 292.84,333.242 6.38,170.859 -124.11,326.613 -293.77,345.16"
         id="letter_o2_right" />
      <path
         d="M 4124.74,869.801 C 4005.94,990.402 3853.04,982.398 3698.63,974 V 866.102 c 52.5,0 99.1,2.402 145.31,-0.801 37.59,-2.602 77.19,-5.996 111.69,-19.602 89.41,-35.199 140.41,-118.894 139.01,-215.301 1.4,-96.398 -49.6,-180.097 -139.01,-215.293 -34.5,-13.605 -74.1,-17.003 -111.69,-19.601 -46.21,-3.203 -92.81,-0.801 -145.31,-0.801 V 286.805 c 154.41,-8.403 307.31,-16.407 426.11,104.199 68.09,69.195 100.4,150.594 98.39,239.394 2.01,88.801 -30.3,170.204 -98.39,239.403"
         id="letter_d" />
      <path
         d="m 4441.84,867.281 c 0,37.473 0,68.551 0,103.949 170.48,0 338.77,0 511.41,0 0,-33.734 0,-67.207 0,-103.949 -170.22,0 -338.63,0 -511.41,0"
         id="letter_e2_top" />
      <path
         d="m 4441.91,581.629 c 0,35.379 0,66.441 0,102.375 153.66,0 306.46,0 462.47,0 0,-33.559 0,-65.895 0,-102.375 -153.31,0 -304.91,0 -462.47,0"
         id="letter_e2_middle" />
      <path
         d="m 4442.55,289.898 c 0,34.375 0,66.829 0,103.204 169.41,0 337.69,0 509.07,0 0,-34.2 0,-66.739 0,-103.204 -169.74,0 -337.91,0 -509.07,0"
         id="letter_e2_bottom" />
      <path
         d="m 5548.85,543.414 c 13.28,7.344 24.25,14.863 36.27,19.836 78.49,32.449 122.73,98.816 124.02,186.578 1.32,89.856 -33.33,159.156 -118.59,194.539 -79.82,33.117 -161.68,35.141 -244.49,32.93 h -196.82 c 0,-40.305 0,-72.793 0,-113.258 49.34,0 94.02,0.504 138.69,-0.117 63.19,-0.883 126.72,1.012 189.48,-4.871 75.59,-7.082 112.58,-50.574 108.46,-116.828 -3.78,-60.864 -52.72,-104.317 -122.46,-106.192 -54.91,-1.472 -109.89,-0.429 -164.85,-0.468 -49.37,-0.032 -98.75,0 -149.12,0 0,-119.954 0,-232.293 0,-345.418 40.38,0 77.35,0 119.58,0 0,79.832 0,155.605 0,233.511 52.95,0 100.57,0 150.17,0 55.83,-78.679 111.49,-157.129 166.57,-234.746 46.46,0 90.45,0 143.26,0 -62.43,88.188 -120.56,170.305 -180.17,254.504"
         id="letter_r" />
      <path
         d="m 6757.03,491.402 c -0.29,-0.3 -0.5,-0.5 -0.8,-0.8 -0.29,0.3 -0.5,0.5 -0.79,0.8 -119.1,-116.004 -236.81,-230.703 -356.3,-347.101 -47.5,47.699 -91.5,92 -145.11,145.898 118.61,116.301 237.1,232.297 365.9,358.496 -119.7,117.407 -238,233.407 -358.49,351.605 46.2,43.7 91.39,86.5 145.7,137.7 116.4,-121 229.2,-238.199 349.09,-362.801 119.9,124.602 232.71,241.801 349.1,362.801 54.31,-51.2 99.5,-94 145.71,-137.7 -120.5,-118.198 -238.8,-234.198 -358.5,-351.605 128.8,-126.199 247.29,-242.195 365.9,-358.496 -53.61,-53.898 -97.6,-98.199 -145.1,-145.898 -119.5,116.398 -237.21,231.097 -356.31,347.101 z m 279.41,153.703 c 120.09,119.497 237.5,236.297 351.6,349.895 -91.91,91.6 -183.7,183.1 -280.61,279.5 C 6993.34,1160.2 6876.44,1043 6756.23,922.398 6636.04,1043 6519.14,1160.2 6405.04,1274.5 6308.13,1178.1 6216.34,1086.6 6124.43,995 6238.54,881.402 6355.94,764.602 6476.04,645.105 6348.44,521.195 6229.53,405.699 6114.74,294.195 6216.74,191 6308.73,97.8984 6405.33,0 c 112.9,113.102 229.41,229.898 350.9,351.598 121.5,-121.7 238.01,-238.496 350.91,-351.598 96.59,97.8984 188.59,191 290.59,294.195 -114.79,111.504 -233.7,227 -361.29,350.91"
         id="icon" />
    </g>
  </g>
</svg>
